<svg version="1.1" id="Layer_1" xmlns="http://www.w3.org/2000/svg" xmlns:xlink="http://www.w3.org/1999/xlink" x="0px" y="0px"
	 width="100%" viewBox="0 0 1080 1080" enable-background="new 0 0 1080 1080" xml:space="preserve">
<path fill="#C5C5C5" opacity="1.000000" stroke="none" 
	d="
M0.999999,859.000000 
	C1.000000,647.306458 1.000000,435.612946 1.248167,223.192352 
	C1.330889,220.643539 1.165444,218.821762 1.000000,217.000000 
	C1.000000,215.933258 1.000000,214.866501 1.384043,213.345306 
	C2.948760,206.943375 4.077647,200.985092 5.318055,195.050110 
	C18.932537,129.908798 53.108906,78.387558 108.204155,41.072720 
	C138.862823,20.308254 172.876328,7.926054 209.587006,2.950902 
	C210.790695,2.787775 211.865250,1.671800 213.000000,0.999998 
	C214.066742,1.000000 215.133499,1.000000 216.831329,1.284802 
	C219.308273,1.379735 221.154144,1.189867 223.000000,1.000000 
	C434.693512,1.000000 646.387024,1.000000 858.807617,1.248206 
	C861.356445,1.330942 863.178223,1.165471 865.000000,1.000000 
	C866.066711,1.000000 867.133484,1.000000 868.654663,1.384046 
	C875.056580,2.948755 881.014893,4.077622 886.949890,5.318039 
	C952.091064,18.932514 1003.612549,53.108486 1040.927124,108.203934 
	C1061.691528,138.862762 1074.073853,172.876297 1079.049194,209.587036 
	C1079.212280,210.790726 1080.328247,211.865250 1081.000000,213.000000 
	C1081.000000,214.066742 1081.000000,215.133499 1080.715332,216.831375 
	C1080.620483,219.308334 1080.810303,221.154160 1081.000000,223.000000 
	C1081.000000,434.693512 1081.000000,646.387024 1080.751953,858.807678 
	C1080.669189,861.356506 1080.834595,863.178284 1081.000000,865.000000 
	C1081.000000,866.066711 1081.000000,867.133484 1080.615967,868.654663 
	C1079.051270,875.056702 1077.922485,881.015076 1076.681885,886.950012 
	C1063.065918,952.090149 1028.891724,1003.612793 973.796143,1040.927124 
	C943.137329,1061.691284 909.123779,1074.073853 872.413025,1079.049316 
	C871.209290,1079.212280 870.134705,1080.328125 869.000000,1081.000000 
	C867.933289,1081.000000 866.866516,1081.000000 865.168701,1080.715210 
	C862.691711,1080.620239 860.845886,1080.810181 859.000000,1081.000000 
	C647.306458,1081.000000 435.612946,1081.000000 223.192368,1080.751709 
	C220.643555,1080.668945 218.821777,1080.834473 217.000000,1081.000000 
	C215.933258,1081.000000 214.866501,1081.000000 213.345306,1080.615967 
	C206.943436,1079.051392 200.985229,1077.922363 195.050308,1076.681763 
	C129.909653,1063.066528 78.387642,1028.891357 41.072796,973.796082 
	C20.308287,943.137329 7.925812,909.123840 2.950902,872.412964 
	C2.787778,871.209290 1.671802,870.134766 1.000000,869.000000 
	C1.000000,867.933289 1.000000,866.866516 1.284787,865.168701 
	C1.379715,862.691711 1.189856,860.845886 0.999999,859.000000 
M1053.414795,743.500061 
	C1053.414673,583.675049 1053.473267,423.849976 1053.302856,264.025146 
	C1053.289185,251.239105 1052.622192,238.312622 1050.688843,225.691895 
	C1033.806152,115.486649 938.608643,34.033615 827.001526,34.012794 
	C638.176819,33.977570 449.352112,33.954147 260.527527,34.121998 
	C248.916275,34.132320 237.188980,35.102482 225.714294,36.896484 
	C114.860222,54.227875 34.023548,148.838242 34.009445,260.997192 
	C33.985748,449.488556 33.939701,637.979980 34.141293,826.471191 
	C34.155128,839.405640 35.189674,852.502441 37.373745,865.245422 
	C55.927528,973.497375 148.680832,1052.928833 258.495544,1053.245972 
	C448.485229,1053.794678 638.477661,1053.442749 828.468933,1053.363037 
	C869.205444,1053.345947 907.480286,1043.163696 942.123291,1021.829651 
	C1011.570496,979.062378 1049.016113,916.546814 1053.019409,834.982666 
	C1054.496582,804.887817 1053.359863,774.664734 1053.414795,743.500061 
z"/>
<path fill="#FFFFFF" opacity="1.000000" stroke="none" 
	d="
M212.531342,0.999998 
	C211.865250,1.671800 210.790695,2.787775 209.587006,2.950902 
	C172.876328,7.926054 138.862823,20.308254 108.204155,41.072720 
	C53.108906,78.387558 18.932537,129.908798 5.318055,195.050110 
	C4.077647,200.985092 2.948760,206.943375 1.384043,212.945419 
	C1.000000,142.406296 1.000000,71.812592 1.000000,1.000000 
	C71.354073,1.000000 141.708374,1.000000 212.531342,0.999998 
z"/>
<path fill="#FFFFFF" opacity="1.000000" stroke="none" 
	d="
M1.000000,869.468628 
	C1.671802,870.134766 2.787778,871.209290 2.950902,872.412964 
	C7.925812,909.123840 20.308287,943.137329 41.072796,973.796082 
	C78.387642,1028.891357 129.909653,1063.066528 195.050308,1076.681763 
	C200.985229,1077.922363 206.943436,1079.051392 212.945435,1080.615967 
	C142.406311,1081.000000 71.812614,1081.000000 1.000000,1081.000000 
	C1.000000,1010.645935 1.000000,940.291626 1.000000,869.468628 
z"/>
<path fill="#FFFFFF" opacity="1.000000" stroke="none" 
	d="
M869.468628,1081.000000 
	C870.134705,1080.328125 871.209290,1079.212280 872.413025,1079.049316 
	C909.123779,1074.073853 943.137329,1061.691284 973.796143,1040.927124 
	C1028.891724,1003.612793 1063.065918,952.090149 1076.681885,886.950012 
	C1077.922485,881.015076 1079.051270,875.056702 1080.615967,869.054565 
	C1081.000000,939.593689 1081.000000,1010.187439 1081.000000,1081.000000 
	C1010.645935,1081.000000 940.291626,1081.000000 869.468628,1081.000000 
z"/>
<path fill="#FFFFFF" opacity="1.000000" stroke="none" 
	d="
M1081.000000,212.531342 
	C1080.328247,211.865250 1079.212280,210.790726 1079.049194,209.587036 
	C1074.073853,172.876297 1061.691528,138.862762 1040.927124,108.203934 
	C1003.612549,53.108486 952.091064,18.932514 886.949890,5.318039 
	C881.014893,4.077622 875.056580,2.948755 869.054565,1.384046 
	C939.593689,1.000000 1010.187439,1.000000 1081.000000,1.000000 
	C1081.000000,71.354080 1081.000000,141.708374 1081.000000,212.531342 
z"/>
<path fill="#FFFFFF" opacity="1.000000" stroke="none" 
	d="
M1081.000000,864.571533 
	C1080.834595,863.178284 1080.669189,861.356506 1080.751953,859.267395 
	C1081.000000,860.714355 1081.000000,862.428711 1081.000000,864.571533 
z"/>
<path fill="#FFFFFF" opacity="1.000000" stroke="none" 
	d="
M0.999999,859.428467 
	C1.189856,860.845886 1.379715,862.691711 1.284787,864.768799 
	C1.000000,863.285645 1.000000,861.571289 0.999999,859.428467 
z"/>
<path fill="#FFFFFF" opacity="1.000000" stroke="none" 
	d="
M1081.000000,222.571533 
	C1080.810303,221.154160 1080.620483,219.308334 1080.715332,217.231262 
	C1081.000000,218.714355 1081.000000,220.428711 1081.000000,222.571533 
z"/>
<path fill="#FFFFFF" opacity="1.000000" stroke="none" 
	d="
M1.000000,217.428467 
	C1.165444,218.821762 1.330889,220.643539 1.248167,222.732651 
	C1.000000,221.285645 1.000000,219.571289 1.000000,217.428467 
z"/>
<path fill="#FFFFFF" opacity="1.000000" stroke="none" 
	d="
M864.571533,1.000000 
	C863.178223,1.165471 861.356445,1.330942 859.267334,1.248206 
	C860.714355,1.000000 862.428711,1.000000 864.571533,1.000000 
z"/>
<path fill="#FFFFFF" opacity="1.000000" stroke="none" 
	d="
M222.571533,1.000000 
	C221.154144,1.189867 219.308273,1.379735 217.231201,1.284802 
	C218.714355,1.000000 220.428711,1.000000 222.571533,1.000000 
z"/>
<path fill="#FFFFFF" opacity="1.000000" stroke="none" 
	d="
M217.428467,1081.000000 
	C218.821777,1080.834473 220.643555,1080.668945 222.732666,1080.751709 
	C221.285645,1081.000000 219.571289,1081.000000 217.428467,1081.000000 
z"/>
<path fill="#FFFFFF" opacity="1.000000" stroke="none" 
	d="
M859.428467,1081.000000 
	C860.845886,1080.810181 862.691711,1080.620239 864.768799,1080.715210 
	C863.285645,1081.000000 861.571289,1081.000000 859.428467,1081.000000 
z"/>
<path fill="#505050" opacity="1.000000" stroke="none" 
	d="
M1053.415039,744.000122 
	C1053.359863,774.664734 1054.496582,804.887817 1053.019409,834.982666 
	C1049.016113,916.546814 1011.570496,979.062378 942.123291,1021.829651 
	C907.480286,1043.163696 869.205444,1053.345947 828.468933,1053.363037 
	C638.477661,1053.442749 448.485229,1053.794678 258.495544,1053.245972 
	C148.680832,1052.928833 55.927528,973.497375 37.373745,865.245422 
	C35.189674,852.502441 34.155128,839.405640 34.141293,826.471191 
	C33.939701,637.979980 33.985748,449.488556 34.009445,260.997192 
	C34.023548,148.838242 114.860222,54.227875 225.714294,36.896484 
	C237.188980,35.102482 248.916275,34.132320 260.527527,34.121998 
	C449.352112,33.954147 638.176819,33.977570 827.001526,34.012794 
	C938.608643,34.033615 1033.806152,115.486649 1050.688843,225.691895 
	C1052.622192,238.312622 1053.289185,251.239105 1053.302856,264.025146 
	C1053.473267,423.849976 1053.414673,583.675049 1053.415039,744.000122 
M604.424011,689.914429 
	C619.283203,674.162170 634.295532,658.550110 648.917297,642.580566 
	C653.945496,637.088806 659.454468,634.811279 666.894287,634.889526 
	C712.713074,635.371094 758.535767,635.460693 804.355896,635.836304 
	C811.163757,635.892029 815.843567,633.546875 819.624939,627.634033 
	C846.104736,586.228394 872.679443,544.880798 899.629578,503.780670 
	C905.459717,494.889313 905.648376,487.494385 899.664856,478.652100 
	C878.094971,446.776672 857.039612,414.553528 835.672180,382.540283 
	C831.080627,375.661102 828.757568,368.427765 828.816650,360.054474 
	C829.056396,326.057434 828.912903,292.057861 829.036621,258.059692 
	C829.061829,251.132919 826.717102,246.027359 820.557434,242.316467 
	C783.027100,219.706299 745.622925,196.886673 708.099609,174.264786 
	C705.832642,172.898117 702.902466,172.631531 700.280884,171.853058 
	C699.797791,174.376190 698.896118,176.898849 698.893311,179.422531 
	C698.835205,231.253479 698.797241,283.084839 698.994934,334.915222 
	C699.023560,342.415131 696.837158,348.444366 691.558350,353.731415 
	C648.342773,397.014648 605.210754,440.381439 561.992065,483.661530 
	C560.969482,484.685516 559.232300,484.995911 557.828369,485.639099 
	C557.227356,484.165894 556.437500,482.736359 556.083984,481.205994 
	C555.791260,479.939026 555.997559,478.552948 556.009460,477.219910 
	C556.337280,440.567688 556.722961,403.915833 556.972473,367.263092 
	C557.074585,352.264984 556.958069,337.264008 556.789185,322.266052 
	C556.719238,316.060760 558.955872,310.871429 562.996277,306.388794 
	C566.675415,302.307007 570.478821,298.333862 574.307434,294.390564 
	C602.048401,265.818848 629.835815,237.292282 657.550598,208.695251 
	C667.752319,198.168777 677.954407,187.634506 687.866089,176.837387 
	C696.219421,167.737823 695.893860,167.189468 685.205139,160.611984 
	C641.362427,133.632675 597.412354,106.822197 553.862000,79.377968 
	C544.792419,73.662598 538.318176,73.419212 528.821960,79.269196 
	C440.454376,133.706543 351.715393,187.541641 262.989166,241.394928 
	C256.592987,245.277130 253.640884,249.982605 253.702148,257.561462 
	C253.968948,290.558044 253.701279,323.558929 253.962814,356.555573 
	C254.041260,366.452057 251.399841,375.017792 245.899277,383.245880 
	C224.139023,415.796143 202.778259,448.613312 181.070007,481.198669 
	C176.742020,487.695282 176.552200,493.224243 180.903259,499.957581 
	C207.306152,540.816772 233.582336,581.761414 259.437714,622.968079 
	C265.163788,632.093933 272.331024,635.960754 282.834839,635.862244 
	C327.486237,635.443176 372.140900,635.385986 416.793121,635.033630 
	C423.088867,634.983948 427.931030,637.018616 432.239990,641.615906 
	C449.897339,660.454956 467.529053,679.328247 485.640717,697.725769 
	C492.170319,704.358459 495.205780,710.788513 494.407501,720.606018 
	C492.209625,747.635498 491.527832,774.786133 490.096619,801.880859 
	C488.902740,824.483154 487.320862,847.065674 486.228027,869.672363 
	C484.692810,901.431641 483.387360,933.202515 482.118378,964.973816 
	C481.667816,976.254822 480.080200,978.007019 468.916168,977.996338 
	C434.418152,977.963257 399.920166,977.922668 365.422150,977.910828 
	C359.064941,977.908630 358.045746,978.874268 357.961060,985.019653 
	C357.887573,990.351440 358.074951,995.687439 357.963104,1001.017761 
	C357.865723,1005.657104 359.697174,1008.288818 364.582733,1008.407104 
	C367.236023,1008.471252 369.884583,1008.884827 372.535217,1008.884460 
	C482.363800,1008.868042 592.192383,1008.820862 702.020996,1008.785583 
	C707.353577,1008.783875 712.686157,1008.884033 718.018738,1008.880432 
	C721.515015,1008.878052 723.788391,1007.287964 724.046875,1003.618774 
	C724.397339,998.643188 724.783691,993.660522 724.852600,988.676758 
	C724.976135,979.748230 723.012390,977.898132 713.998779,977.906006 
	C678.833679,977.936646 643.668640,977.976013 608.503540,977.989807 
	C601.761230,977.992493 600.362610,976.675232 600.103638,969.829346 
	C599.335999,949.529907 598.699341,929.225403 597.901184,908.927246 
	C597.292847,893.457397 596.574036,877.991333 595.802856,862.528625 
	C594.210999,830.611084 592.585449,798.695190 590.904968,766.782227 
	C590.082336,751.161011 589.346558,735.528625 588.101501,719.938843 
	C587.438293,711.635010 588.580811,704.500732 595.502319,698.952881 
	C598.599731,696.470215 601.135071,693.286377 604.424011,689.914429 
M603.572144,365.907532 
	C621.391602,365.866699 639.211914,365.717651 657.029968,365.853943 
	C662.080505,365.892517 664.542786,363.710052 664.768127,358.913971 
	C664.955322,354.929596 665.098877,350.904541 664.749756,346.942627 
	C664.233887,341.089081 662.734985,339.907715 656.740540,339.909058 
	C634.424438,339.914154 612.108215,339.946930 589.792175,340.004791 
	C583.449646,340.021240 582.104126,341.293518 581.186829,347.777618 
	C579.716980,358.166840 581.264465,362.883484 586.715637,364.559296 
	C587.346619,364.753265 588.014526,364.874481 588.673157,364.923370 
	C593.313477,365.267487 597.955872,365.583740 603.572144,365.907532 
M614.500000,330.911194 
	C626.306274,330.911194 638.112549,330.916168 649.918823,330.909821 
	C663.832825,330.902344 665.072632,329.658997 664.941650,315.897308 
	C664.859070,307.225189 662.627808,305.004944 653.938049,305.001038 
	C635.148010,304.992584 616.358032,304.992157 597.567993,304.995453 
	C582.245972,304.998138 579.205200,308.560089 581.377136,323.937683 
	C581.400391,324.102112 581.456238,324.263336 581.466980,324.428009 
	C581.778503,329.187469 584.433472,331.022491 589.056641,330.945709 
	C597.202393,330.810394 605.351990,330.909821 614.500000,330.911194 
z"/>
<path fill="#27BA36" opacity="1.000000" stroke="none" 
	d="
M604.174744,690.167603 
	C601.135071,693.286377 598.599731,696.470215 595.502319,698.952881 
	C588.580811,704.500732 587.438293,711.635010 588.101501,719.938843 
	C589.346558,735.528625 590.082336,751.161011 590.904968,766.782227 
	C592.585449,798.695190 594.210999,830.611084 595.802856,862.528625 
	C596.574036,877.991333 597.292847,893.457397 597.901184,908.927246 
	C598.699341,929.225403 599.335999,949.529907 600.103638,969.829346 
	C600.362610,976.675232 601.761230,977.992493 608.503540,977.989807 
	C643.668640,977.976013 678.833679,977.936646 713.998779,977.906006 
	C723.012390,977.898132 724.976135,979.748230 724.852600,988.676758 
	C724.783691,993.660522 724.397339,998.643188 724.046875,1003.618774 
	C723.788391,1007.287964 721.515015,1008.878052 718.018738,1008.880432 
	C712.686157,1008.884033 707.353577,1008.783875 702.020996,1008.785583 
	C592.192383,1008.820862 482.363800,1008.868042 372.535217,1008.884460 
	C369.884583,1008.884827 367.236023,1008.471252 364.582733,1008.407104 
	C359.697174,1008.288818 357.865723,1005.657104 357.963104,1001.017761 
	C358.074951,995.687439 357.887573,990.351440 357.961060,985.019653 
	C358.045746,978.874268 359.064941,977.908630 365.422150,977.910828 
	C399.920166,977.922668 434.418152,977.963257 468.916168,977.996338 
	C480.080200,978.007019 481.667816,976.254822 482.118378,964.973816 
	C483.387360,933.202515 484.692810,901.431641 486.228027,869.672363 
	C487.320862,847.065674 488.902740,824.483154 490.096619,801.880859 
	C491.527832,774.786133 492.209625,747.635498 494.407501,720.606018 
	C495.205780,710.788513 492.170319,704.358459 485.640717,697.725769 
	C467.529053,679.328247 449.897339,660.454956 432.239990,641.615906 
	C427.931030,637.018616 423.088867,634.983948 416.793121,635.033630 
	C372.140900,635.385986 327.486237,635.443176 282.834839,635.862244 
	C272.331024,635.960754 265.163788,632.093933 259.437714,622.968079 
	C233.582336,581.761414 207.306152,540.816772 180.903259,499.957581 
	C176.552200,493.224243 176.742020,487.695282 181.070007,481.198669 
	C202.778259,448.613312 224.139023,415.796143 245.899277,383.245880 
	C251.399841,375.017792 254.041260,366.452057 253.962814,356.555573 
	C253.701279,323.558929 253.968948,290.558044 253.702148,257.561462 
	C253.640884,249.982605 256.592987,245.277130 262.989166,241.394928 
	C351.715393,187.541641 440.454376,133.706543 528.821960,79.269196 
	C538.318176,73.419212 544.792419,73.662598 553.862000,79.377968 
	C597.412354,106.822197 641.362427,133.632675 685.205139,160.611984 
	C695.893860,167.189468 696.219421,167.737823 687.866089,176.837387 
	C677.954407,187.634506 667.752319,198.168777 657.550598,208.695251 
	C629.835815,237.292282 602.048401,265.818848 574.307434,294.390564 
	C570.478821,298.333862 566.675415,302.307007 562.996277,306.388794 
	C558.955872,310.871429 556.719238,316.060760 556.789185,322.266052 
	C556.958069,337.264008 557.074585,352.264984 556.972473,367.263092 
	C556.722961,403.915833 556.337280,440.567688 556.009460,477.219910 
	C555.997559,478.552948 555.791260,479.939026 556.083984,481.205994 
	C556.437500,482.736359 557.227356,484.165894 557.828369,485.639099 
	C559.232300,484.995911 560.969482,484.685516 561.992065,483.661530 
	C605.210754,440.381439 648.342773,397.014648 691.558350,353.731415 
	C696.837158,348.444366 699.023560,342.415131 698.994934,334.915222 
	C698.797241,283.084839 698.835205,231.253479 698.893311,179.422531 
	C698.896118,176.898849 699.797791,174.376190 700.280884,171.853058 
	C702.902466,172.631531 705.832642,172.898117 708.099609,174.264786 
	C745.622925,196.886673 783.027100,219.706299 820.557434,242.316467 
	C826.717102,246.027359 829.061829,251.132919 829.036621,258.059692 
	C828.912903,292.057861 829.056396,326.057434 828.816650,360.054474 
	C828.757568,368.427765 831.080627,375.661102 835.672180,382.540283 
	C857.039612,414.553528 878.094971,446.776672 899.664856,478.652100 
	C905.648376,487.494385 905.459717,494.889313 899.629578,503.780670 
	C872.679443,544.880798 846.104736,586.228394 819.624939,627.634033 
	C815.843567,633.546875 811.163757,635.892029 804.355896,635.836304 
	C758.535767,635.460693 712.713074,635.371094 666.894287,634.889526 
	C659.454468,634.811279 653.945496,637.088806 648.917297,642.580566 
	C634.295532,658.550110 619.283203,674.162170 604.174744,690.167603 
M336.419281,497.083740 
	C389.077545,551.818237 441.735779,606.552734 494.394012,661.287231 
	C494.863037,661.148438 495.332062,661.009644 495.801056,660.870850 
	C496.163513,657.998474 496.721069,655.135132 496.853912,652.252197 
	C497.374939,640.946106 497.626740,629.626587 498.225220,618.325134 
	C499.773560,589.086975 501.413788,559.853516 503.096863,530.622742 
	C503.890411,516.840515 504.794464,503.063629 505.785797,489.294220 
	C506.436279,480.259247 506.255859,472.045074 497.967926,465.509460 
	C482.029083,452.940521 466.675385,439.628815 451.097443,426.603058 
	C421.343201,401.723511 391.597931,376.833252 361.856567,351.938324 
	C338.241028,332.171021 314.655823,312.367371 290.983337,292.668549 
	C289.467468,291.407135 287.314911,290.910889 285.458527,290.058685 
	C284.999390,291.877380 284.145264,293.695068 284.140808,295.514893 
	C284.080841,320.002930 284.022552,344.492249 284.236328,368.978912 
	C284.304321,376.770538 282.414703,383.874084 278.258698,390.286987 
	C261.503174,416.141296 244.588867,441.892639 227.800186,467.725586 
	C226.683319,469.444092 226.123428,471.524536 225.304474,473.436646 
	C227.421646,473.999207 229.536774,475.042053 231.656281,475.051056 
	C256.477051,475.156769 281.298523,475.128754 306.119720,475.082550 
	C311.938965,475.071747 316.823456,477.046173 320.874237,481.237244 
	C325.852325,486.387726 330.903168,491.467865 336.419281,497.083740 
M824.817627,561.320618 
	C838.440613,540.172729 851.992188,518.978333 865.742371,497.913513 
	C868.748108,493.308929 869.036560,489.443298 865.867737,484.680267 
	C847.780151,457.492859 829.931641,430.146393 811.987671,402.863403 
	C807.273254,395.695312 805.697510,395.059814 797.508179,397.063446 
	C754.499268,407.586029 711.507019,418.177521 668.475952,428.608429 
	C661.442932,430.313293 655.590820,433.524475 650.514587,438.725922 
	C628.635132,461.144958 606.655701,483.467499 584.572632,505.686005 
	C579.157349,511.134430 577.549988,517.441895 578.157593,524.818237 
	C579.195618,537.418640 580.252686,550.027344 580.828247,562.654114 
	C582.086731,590.261841 583.021179,617.884216 584.159851,645.497681 
	C584.331055,649.649048 584.710938,653.812256 585.350098,657.914551 
	C585.637878,659.761658 586.800842,661.472351 587.888245,663.989014 
	C591.170227,659.835815 593.401306,656.522949 596.110901,653.663513 
	C612.955322,635.887512 629.926880,618.231934 646.814514,600.496765 
	C654.853760,592.054077 662.771545,583.495850 670.797302,575.040222 
	C680.889648,564.407532 690.972351,553.764282 701.190674,543.253357 
	C705.321411,539.004333 707.285339,539.112305 711.766846,543.149475 
	C715.230225,546.269409 718.665344,549.424988 722.015381,552.665649 
	C727.734070,558.197693 727.713135,560.744202 722.314331,566.401794 
	C712.196533,577.004456 702.096436,587.624817 692.095581,598.337219 
	C691.087463,599.417053 690.210388,601.266418 690.405518,602.591797 
	C690.532898,603.457397 692.653076,604.164673 693.984009,604.670776 
	C694.878052,605.010742 695.953064,604.940857 696.947205,604.941711 
	C727.610291,604.969116 758.273438,604.947693 788.936340,605.030640 
	C794.450745,605.045532 798.460144,602.889709 801.388794,598.217285 
	C808.997620,586.078003 816.732605,574.017822 824.817627,561.320618 
M520.790649,121.196617 
	C482.699951,144.480988 444.691589,167.902161 406.442963,190.924133 
	C399.531158,195.084366 397.014771,200.209381 397.094666,208.026169 
	C397.503174,248.007675 398.031128,287.999969 397.417511,327.971619 
	C397.260590,338.195068 400.866150,344.399506 408.237335,350.311859 
	C422.133331,361.457611 435.588776,373.152863 449.218781,384.629852 
	C472.528473,404.257477 495.818970,423.907928 519.179321,443.475098 
	C520.214661,444.342346 522.035095,445.082794 523.164429,444.756439 
	C523.984680,444.519470 524.404907,442.456970 524.742920,441.141479 
	C524.984009,440.203186 524.793640,439.153656 524.793640,438.153778 
	C524.793762,334.330719 524.793884,230.507645 524.790955,126.684586 
	C524.790894,125.185410 525.118347,123.536819 524.590759,122.244698 
	C524.288147,121.503540 522.568481,121.340988 520.790649,121.196617 
M262.817902,569.696716 
	C268.526215,578.701233 274.184357,587.738159 279.963776,596.696777 
	C282.913177,601.268616 286.201569,605.100098 292.562408,605.068298 
	C323.556366,604.913574 354.551666,605.037231 385.545990,604.927490 
	C388.204315,604.918091 390.859192,603.920166 394.430237,603.195984 
	C392.607422,600.845520 391.634003,599.325439 390.406769,598.049622 
	C380.474701,587.724060 370.486816,577.452209 360.531586,567.148926 
	C343.052490,549.058655 325.513153,531.025635 308.162170,512.813171 
	C303.845337,508.281982 299.010925,506.016785 292.742767,506.052307 
	C271.080383,506.175110 249.416840,506.091095 227.753784,506.115234 
	C226.347946,506.116821 224.942368,506.366547 222.462234,506.603516 
	C236.104858,527.939758 249.261414,548.515869 262.817902,569.696716 
M561.943909,262.671783 
	C588.697632,235.054245 615.441711,207.427277 642.216125,179.829758 
	C646.044006,175.884171 646.102539,174.207382 641.583313,171.319290 
	C621.670837,158.593994 601.731140,145.910446 581.722046,133.337784 
	C573.898071,128.421616 565.866089,123.836464 556.929810,118.504478 
	C556.929810,121.379532 556.939209,123.143341 556.928467,124.907021 
	C556.673096,166.689331 556.413452,208.471634 556.162903,250.253983 
	C556.143982,253.416199 555.846924,256.629730 556.309692,259.725098 
	C556.680054,262.201904 557.318909,265.577881 561.943909,262.671783 
M724.383789,364.869354 
	C717.438782,371.944794 710.493774,379.020233 702.911865,386.744507 
	C705.140747,386.744507 706.311401,386.966736 707.367065,386.712097 
	C735.346863,379.963196 763.304321,373.120972 791.294556,366.415741 
	C796.384033,365.196533 798.247864,362.364197 798.195679,357.160522 
	C797.991821,336.841431 798.113281,316.519165 798.082092,296.198090 
	C798.079651,294.634003 797.830322,293.070282 797.695740,291.506409 
	C797.263245,291.300781 796.830750,291.095154 796.398254,290.889526 
	C772.558777,315.382111 748.719299,339.874725 724.383789,364.869354 
M366.921509,242.500000 
	C366.921509,233.630386 366.921509,224.760757 366.921509,214.863159 
	C343.456635,229.391022 321.091431,243.238068 298.090881,257.478455 
	C320.836700,276.856293 342.569550,295.371155 365.423126,314.840820 
	C366.051483,310.685364 366.840332,307.838562 366.855621,304.987610 
	C366.965576,284.492218 366.918549,263.995972 366.921509,242.500000 
M734.009338,309.556763 
	C750.665466,292.380188 767.321533,275.203583 784.369324,257.623047 
	C781.218262,255.628693 778.601257,253.934464 775.947815,252.299255 
	C762.485596,244.003082 749.028625,235.698151 735.537170,227.449829 
	C731.145813,224.765076 728.846436,225.958481 728.195679,231.118484 
	C728.092163,231.939529 728.141846,232.781464 728.141724,233.613754 
	C728.138428,257.258728 728.129578,280.903717 728.156860,304.548676 
	C728.158569,306.030273 728.233398,307.573975 728.645264,308.980133 
	C729.551758,312.075836 731.216187,312.713959 734.009338,309.556763 
M565.841736,719.874695 
	C569.058044,719.367737 571.442627,718.046387 571.550720,713.772156 
	C569.485962,713.512939 567.561218,713.023132 565.650818,713.073608 
	C556.505310,713.315002 547.361389,713.653809 538.222107,714.070435 
	C535.728455,714.184143 532.518555,714.455872 533.259949,717.923218 
	C533.531555,719.193176 536.678589,720.645813 538.515503,720.648071 
	C547.330444,720.658752 556.145874,720.201477 565.841736,719.874695 
M565.208313,963.979858 
	C561.220642,964.055481 557.227173,964.025391 553.247314,964.243103 
	C550.497131,964.393555 546.978210,964.166992 547.062744,968.247192 
	C547.150452,972.487976 550.706970,971.827942 553.428711,971.731384 
	C558.069763,971.566650 562.705383,971.200378 567.337524,970.843750 
	C571.472717,970.525452 575.657104,970.392212 579.702454,969.587402 
	C581.287170,969.272156 582.552185,967.350342 583.962769,966.160156 
	C582.487793,965.133850 581.041504,963.288391 579.532288,963.235474 
	C575.083862,963.079529 570.610474,963.633606 565.208313,963.979858 
M549.644775,585.124451 
	C554.291260,584.010132 558.937805,582.895874 563.584290,581.781555 
	C557.873352,576.956665 532.030640,578.607239 528.061462,582.654724 
	C534.210632,585.835876 540.494751,586.625244 549.644775,585.124451 
M552.790222,848.991394 
	C549.921875,849.595154 547.053589,850.198975 543.078247,851.035767 
	C551.353027,856.753723 570.884399,855.892578 577.982483,849.988464 
	C569.638428,846.977600 561.550842,849.956604 552.790222,848.991394 
M551.485413,617.544373 
	C550.707397,618.843872 549.512268,620.086975 549.325684,621.466492 
	C549.231018,622.166626 550.933533,623.799866 551.859680,623.828125 
	C555.797180,623.948242 559.794678,623.915283 563.666992,623.294434 
	C564.883362,623.099426 565.776794,620.889954 566.817993,619.602539 
	C565.438477,618.736145 564.112305,617.251465 562.668823,617.126953 
	C559.237976,616.831177 555.751526,617.179077 551.485413,617.544373 
M554.059082,661.917908 
	C557.845581,661.806213 561.664795,661.940430 565.399902,661.443115 
	C566.627747,661.279602 567.637817,659.480103 568.747437,658.428772 
	C567.667053,657.349731 566.587219,655.354248 565.506042,655.353577 
	C561.283997,655.350891 557.037842,655.828369 552.857239,656.486694 
	C551.896301,656.638062 550.338684,658.422791 550.506775,659.090698 
	C550.780518,660.178406 552.249268,660.965393 554.059082,661.917908 
M573.133850,950.785156 
	C576.345459,950.092957 579.557068,949.400757 582.768677,948.708557 
	C582.833374,948.149048 582.898010,947.589539 582.962708,947.030029 
	C581.606995,946.064209 580.353943,944.525146 578.872681,944.259644 
	C576.304077,943.799377 573.588074,944.013428 570.945190,944.155579 
	C568.041321,944.311768 564.121277,943.940735 564.383545,948.214233 
	C564.616760,952.014709 568.281921,950.776306 570.770935,950.924377 
	C571.264404,950.953735 571.763611,950.884277 573.133850,950.785156 
M563.137817,738.913818 
	C566.418457,737.840942 569.699097,736.768066 572.979736,735.695251 
	C572.908020,734.971252 572.836304,734.247314 572.764587,733.523376 
	C569.299683,733.015564 565.786255,731.904175 562.384277,732.178040 
	C559.280212,732.427795 553.612793,734.457275 553.692261,735.223206 
	C554.243652,740.535950 558.910339,738.593994 563.137817,738.913818 
M550.666992,638.171570 
	C548.973572,641.823792 551.636475,642.650635 554.140564,642.925903 
	C557.074219,643.248474 560.147705,643.309753 563.020264,642.756226 
	C564.487671,642.473572 565.648499,640.599915 566.947876,639.445312 
	C565.758362,638.317627 564.552002,636.218079 563.382446,636.238464 
	C559.340393,636.308838 555.311096,637.117615 550.666992,638.171570 
M561.803223,871.988525 
	C566.477539,874.768066 571.369202,874.297241 576.284485,872.874207 
	C579.215576,872.025574 579.694702,870.284058 577.463684,868.197754 
	C574.077271,865.031006 563.773499,867.148804 561.803223,871.988525 
M569.925964,678.247131 
	C569.347168,677.202759 568.774353,675.259827 568.188782,675.255920 
	C563.419556,675.224426 558.638672,675.454651 553.887573,675.890564 
	C553.214844,675.952332 552.299622,677.518860 552.216675,678.452759 
	C552.158203,679.112183 553.359924,680.534058 553.925598,680.496948 
	C559.186340,680.151855 564.431091,679.564026 569.925964,678.247131 
M558.883545,758.074158 
	C562.331787,757.791077 565.832458,757.770203 569.202698,757.096619 
	C570.560547,756.825195 571.632629,755.124084 572.834778,754.073669 
	C571.397949,753.184509 570.005188,751.640259 568.515320,751.540283 
	C565.248962,751.320923 561.892395,751.598083 558.657837,752.161438 
	C557.347107,752.389709 556.258545,753.893311 555.068909,754.816650 
	C556.048157,755.888916 557.027405,756.961243 558.883545,758.074158 
M560.756592,829.759583 
	C558.580322,833.420837 559.503723,835.621765 563.405579,835.419312 
	C566.878296,835.239075 570.369507,834.667297 573.747498,833.839600 
	C574.836914,833.572693 575.592773,831.944763 576.501221,830.939453 
	C575.476868,830.279602 574.466797,829.082703 573.425659,829.055054 
	C569.447021,828.949524 565.458496,829.220276 560.756592,829.759583 
M571.751709,795.887756 
	C572.895447,795.010559 574.039124,794.133423 575.647949,792.899414 
	C568.571289,788.949585 562.530640,789.832886 556.268066,793.141418 
	C557.855957,794.557007 559.583374,795.783875 561.422302,795.983582 
	C564.542847,796.322388 567.733704,796.013550 571.751709,795.887756 
M572.609558,925.027344 
	C570.651428,925.363525 568.569214,925.401733 566.781189,926.146301 
	C565.687622,926.601807 565.045959,928.142151 564.201355,929.195312 
	C565.230713,929.819336 566.227722,930.904480 567.295532,930.979309 
	C570.266724,931.187378 573.316040,931.281921 576.238159,930.816528 
	C578.019470,930.532837 579.622803,929.131531 581.306091,928.232178 
	C581.183960,927.637207 581.061768,927.042175 580.939636,926.447205 
	C578.452454,925.965881 575.965210,925.484558 572.609558,925.027344 
M555.738647,699.937439 
	C559.341858,699.954895 562.957031,700.135681 566.539673,699.872498 
	C567.412781,699.808350 568.765320,698.320679 568.818848,697.423218 
	C568.866516,696.624573 567.508972,695.126465 566.618347,694.997864 
	C563.361267,694.527405 559.998047,694.087463 556.754517,694.417908 
	C553.264160,694.773499 551.830811,696.624023 555.738647,699.937439 
M579.243103,909.100220 
	C578.548828,904.817749 574.846375,905.528137 572.379456,905.741394 
	C569.627197,905.979370 567.002563,907.693726 564.322327,908.765442 
	C564.912354,909.742249 565.471375,911.539978 566.097412,911.563660 
	C570.422607,911.727051 575.070679,913.488281 579.243103,909.100220 
M552.049927,604.083252 
	C556.778931,603.752319 562.059143,605.361450 565.960693,600.114624 
	C560.798157,596.897705 555.751770,597.326904 550.901123,599.323059 
	C547.817078,600.592102 548.703796,602.543213 552.049927,604.083252 
M561.163147,771.118103 
	C559.554504,771.866211 557.945862,772.614258 555.880127,773.574890 
	C563.181091,778.841797 569.729980,778.081360 573.162354,771.086243 
	C569.043823,771.086243 565.531067,771.086243 561.163147,771.118103 
M573.729736,814.710022 
	C574.198608,813.927246 575.261047,812.728760 575.047546,812.423828 
	C571.705627,807.651428 562.675415,808.651733 559.118164,814.875549 
	C564.044006,814.875549 568.508423,814.875549 573.729736,814.710022 
M574.005981,887.038696 
	C570.521790,887.335693 566.390076,885.690430 564.074768,890.230408 
	C567.424194,893.293274 571.053894,893.352844 574.736328,891.812744 
	C577.827515,890.519836 578.038513,888.788391 574.005981,887.038696 
z"/>
<path fill="#28B936" opacity="1.000000" stroke="none" 
	d="
M603.084839,365.908203 
	C597.955872,365.583740 593.313477,365.267487 588.673157,364.923370 
	C588.014526,364.874481 587.346619,364.753265 586.715637,364.559296 
	C581.264465,362.883484 579.716980,358.166840 581.186829,347.777618 
	C582.104126,341.293518 583.449646,340.021240 589.792175,340.004791 
	C612.108215,339.946930 634.424438,339.914154 656.740540,339.909058 
	C662.734985,339.907715 664.233887,341.089081 664.749756,346.942627 
	C665.098877,350.904541 664.955322,354.929596 664.768127,358.913971 
	C664.542786,363.710052 662.080505,365.892517 657.029968,365.853943 
	C639.211914,365.717651 621.391602,365.866699 603.084839,365.908203 
z"/>
<path fill="#28B936" opacity="1.000000" stroke="none" 
	d="
M614.000000,330.911072 
	C605.351990,330.909821 597.202393,330.810394 589.056641,330.945709 
	C584.433472,331.022491 581.778503,329.187469 581.466980,324.428009 
	C581.456238,324.263336 581.400391,324.102112 581.377136,323.937683 
	C579.205200,308.560089 582.245972,304.998138 597.567993,304.995453 
	C616.358032,304.992157 635.148010,304.992584 653.938049,305.001038 
	C662.627808,305.004944 664.859070,307.225189 664.941650,315.897308 
	C665.072632,329.658997 663.832825,330.902344 649.918823,330.909821 
	C638.112549,330.916168 626.306274,330.911194 614.000000,330.911072 
z"/>
<path fill="#505150" opacity="1.000000" stroke="none" 
	d="
M336.170898,496.831085 
	C330.903168,491.467865 325.852325,486.387726 320.874237,481.237244 
	C316.823456,477.046173 311.938965,475.071747 306.119720,475.082550 
	C281.298523,475.128754 256.477051,475.156769 231.656281,475.051056 
	C229.536774,475.042053 227.421646,473.999207 225.304474,473.436646 
	C226.123428,471.524536 226.683319,469.444092 227.800186,467.725586 
	C244.588867,441.892639 261.503174,416.141296 278.258698,390.286987 
	C282.414703,383.874084 284.304321,376.770538 284.236328,368.978912 
	C284.022552,344.492249 284.080841,320.002930 284.140808,295.514893 
	C284.145264,293.695068 284.999390,291.877380 285.458527,290.058685 
	C287.314911,290.910889 289.467468,291.407135 290.983337,292.668549 
	C314.655823,312.367371 338.241028,332.171021 361.856567,351.938324 
	C391.597931,376.833252 421.343201,401.723511 451.097443,426.603058 
	C466.675385,439.628815 482.029083,452.940521 497.967926,465.509460 
	C506.255859,472.045074 506.436279,480.259247 505.785797,489.294220 
	C504.794464,503.063629 503.890411,516.840515 503.096863,530.622742 
	C501.413788,559.853516 499.773560,589.086975 498.225220,618.325134 
	C497.626740,629.626587 497.374939,640.946106 496.853912,652.252197 
	C496.721069,655.135132 496.163513,657.998474 495.801056,660.870850 
	C495.332062,661.009644 494.863037,661.148438 494.394012,661.287231 
	C441.735779,606.552734 389.077545,551.818237 336.170898,496.831085 
M367.565826,438.064941 
	C373.878937,436.657990 380.576385,436.144562 386.414459,433.633331 
	C395.028656,429.927948 403.146790,424.995178 411.239655,420.187012 
	C414.671906,418.147888 414.525452,415.243866 411.219788,412.600952 
	C397.099182,401.311340 381.376068,394.076843 363.086761,392.983673 
	C341.752228,391.708466 322.854645,398.611084 305.247406,409.949463 
	C299.817200,413.446289 299.511719,416.628082 305.052094,420.135071 
	C312.333588,424.744171 319.793884,429.292999 327.694519,432.650635 
	C340.065765,437.908264 353.134521,440.218170 367.565826,438.064941 
M473.076385,506.720154 
	C472.871887,499.168884 470.917175,497.152527 463.026611,497.135742 
	C441.877686,497.090790 420.728424,497.165314 399.579498,497.250671 
	C397.597778,497.258667 395.620667,497.710144 393.636230,497.902374 
	C390.390076,498.216797 388.947754,500.086823 388.947479,503.231628 
	C388.947113,507.727661 389.062378,512.226685 388.933838,516.718872 
	C388.806580,521.165833 390.856964,523.074646 395.237030,523.068054 
	C418.717255,523.032898 442.197845,523.128357 465.677704,523.034973 
	C470.913666,523.014099 472.849640,520.806152 472.992920,515.653198 
	C473.066956,512.990295 473.049377,510.324799 473.076385,506.720154 
z"/>
<path fill="#505150" opacity="1.000000" stroke="none" 
	d="
M824.617432,561.623352 
	C816.732605,574.017822 808.997620,586.078003 801.388794,598.217285 
	C798.460144,602.889709 794.450745,605.045532 788.936340,605.030640 
	C758.273438,604.947693 727.610291,604.969116 696.947205,604.941711 
	C695.953064,604.940857 694.878052,605.010742 693.984009,604.670776 
	C692.653076,604.164673 690.532898,603.457397 690.405518,602.591797 
	C690.210388,601.266418 691.087463,599.417053 692.095581,598.337219 
	C702.096436,587.624817 712.196533,577.004456 722.314331,566.401794 
	C727.713135,560.744202 727.734070,558.197693 722.015381,552.665649 
	C718.665344,549.424988 715.230225,546.269409 711.766846,543.149475 
	C707.285339,539.112305 705.321411,539.004333 701.190674,543.253357 
	C690.972351,553.764282 680.889648,564.407532 670.797302,575.040222 
	C662.771545,583.495850 654.853760,592.054077 646.814514,600.496765 
	C629.926880,618.231934 612.955322,635.887512 596.110901,653.663513 
	C593.401306,656.522949 591.170227,659.835815 587.888245,663.989014 
	C586.800842,661.472351 585.637878,659.761658 585.350098,657.914551 
	C584.710938,653.812256 584.331055,649.649048 584.159851,645.497681 
	C583.021179,617.884216 582.086731,590.261841 580.828247,562.654114 
	C580.252686,550.027344 579.195618,537.418640 578.157593,524.818237 
	C577.549988,517.441895 579.157349,511.134430 584.572632,505.686005 
	C606.655701,483.467499 628.635132,461.144958 650.514587,438.725922 
	C655.590820,433.524475 661.442932,430.313293 668.475952,428.608429 
	C711.507019,418.177521 754.499268,407.586029 797.508179,397.063446 
	C805.697510,395.059814 807.273254,395.695312 811.987671,402.863403 
	C829.931641,430.146393 847.780151,457.492859 865.867737,484.680267 
	C869.036560,489.443298 868.748108,493.308929 865.742371,497.913513 
	C851.992188,518.978333 838.440613,540.172729 824.617432,561.623352 
M729.439087,515.937988 
	C728.499207,516.881470 727.559265,517.824890 726.619507,518.768494 
	C717.217224,528.209106 717.209229,528.445557 725.950989,538.519531 
	C733.224731,546.901733 738.802856,547.198608 746.896179,539.469177 
	C751.710571,534.871216 756.271973,530.005676 761.140259,525.467651 
	C765.208557,521.675354 767.402527,521.824585 771.312988,525.748657 
	C777.188171,531.644226 782.950500,537.652405 788.842773,543.530518 
	C792.890686,547.568604 794.747803,547.571960 798.893250,543.555725 
	C802.479004,540.081848 805.992004,536.524475 809.388977,532.866394 
	C813.083923,528.887329 813.001831,526.486572 809.281860,522.601013 
	C803.643311,516.711548 797.983887,510.841919 792.313171,504.983429 
	C788.056946,500.586395 788.011597,498.565765 792.302795,494.067932 
	C797.813538,488.291901 803.377014,482.566376 808.911560,476.813080 
	C812.805359,472.765381 813.031250,470.284668 809.281250,466.030304 
	C806.427734,462.792908 803.335999,459.710754 800.033752,456.936401 
	C795.033386,452.735535 791.699463,452.920502 786.909546,457.532990 
	C781.635437,462.611664 776.662415,468.003571 771.374390,473.066956 
	C766.401550,477.828491 765.086426,477.717407 760.268494,472.924591 
	C754.839966,467.524292 749.561829,461.966858 744.002014,456.706268 
	C739.233948,452.194824 737.289551,452.324097 732.627502,456.821625 
	C729.753052,459.594666 727.049072,462.544128 724.182861,465.326172 
	C718.410461,470.929230 718.536438,473.138062 724.397461,478.577026 
	C729.875732,483.660797 735.224365,488.900879 740.378296,494.312042 
	C744.239197,498.365570 744.010986,500.526459 740.206543,504.540771 
	C736.773560,508.163147 733.360107,511.803986 729.439087,515.937988 
M615.890747,561.675049 
	C617.815979,569.899963 619.458435,578.205750 621.778381,586.317810 
	C623.059998,590.799438 625.404602,591.438904 629.309692,588.648865 
	C635.663269,584.109436 642.316528,579.752136 647.802856,574.275635 
	C676.865723,545.265076 682.614624,510.478088 672.021973,471.994537 
	C670.545044,466.628784 668.496887,466.108459 663.543091,469.009094 
	C644.523376,480.146210 630.312256,495.522583 622.462402,516.306152 
	C617.058533,530.613525 614.024658,545.351135 615.890747,561.675049 
z"/>
<path fill="#4F5150" opacity="1.000000" stroke="none" 
	d="
M521.138672,121.057289 
	C522.568481,121.340988 524.288147,121.503540 524.590759,122.244698 
	C525.118347,123.536819 524.790894,125.185410 524.790955,126.684586 
	C524.793884,230.507645 524.793762,334.330719 524.793640,438.153778 
	C524.793640,439.153656 524.984009,440.203186 524.742920,441.141479 
	C524.404907,442.456970 523.984680,444.519470 523.164429,444.756439 
	C522.035095,445.082794 520.214661,444.342346 519.179321,443.475098 
	C495.818970,423.907928 472.528473,404.257477 449.218781,384.629852 
	C435.588776,373.152863 422.133331,361.457611 408.237335,350.311859 
	C400.866150,344.399506 397.260590,338.195068 397.417511,327.971619 
	C398.031128,287.999969 397.503174,248.007675 397.094666,208.026169 
	C397.014771,200.209381 399.531158,195.084366 406.442963,190.924133 
	C444.691589,167.902161 482.699951,144.480988 521.138672,121.057289 
M447.791931,263.648834 
	C447.565643,270.276184 447.416138,276.907288 447.088959,283.529663 
	C446.824921,288.873199 444.343506,290.887543 439.004974,290.560944 
	C435.689545,290.358093 432.363892,290.242767 429.042389,290.232513 
	C416.962463,290.195312 416.752289,290.412109 415.837708,302.170013 
	C415.760406,303.163391 415.584534,304.148865 415.464081,305.139160 
	C414.481018,313.219727 417.350220,316.613159 425.585602,316.870697 
	C430.075012,317.011108 434.572906,316.966980 439.065338,316.899323 
	C443.156097,316.837738 445.866669,318.373199 446.199158,322.757996 
	C446.550354,327.389252 446.904572,332.024597 447.068298,336.664856 
	C447.427643,346.849640 449.579407,349.042542 459.582886,348.877289 
	C461.900757,348.838989 464.209900,348.420532 466.528595,348.254028 
	C471.320190,347.909882 473.140015,345.194550 473.036438,340.602997 
	C472.923859,335.613251 472.989105,330.616760 473.092743,325.625580 
	C473.208618,320.045807 475.110016,318.120117 480.629059,318.023254 
	C485.786835,317.932739 490.947510,317.971771 496.106628,318.003754 
	C500.751404,318.032562 503.451660,315.526947 503.773346,311.166779 
	C504.139130,306.208405 503.903992,301.188599 503.663055,296.208466 
	C503.497803,292.792297 501.749237,290.746948 497.952942,290.720306 
	C492.138000,290.679474 486.325470,290.368164 480.510651,290.221863 
	C474.742798,290.076691 473.405304,288.972595 473.176910,283.246002 
	C472.958160,277.761230 472.954041,272.261932 473.049713,266.772430 
	C473.127380,262.313293 470.748871,260.339447 466.678223,260.170654 
	C462.359161,259.991608 458.001373,259.845367 453.712708,260.245026 
	C451.791016,260.424072 449.996582,261.968567 447.791931,263.648834 
M487.956635,190.509521 
	C485.307617,188.499435 482.907990,185.953674 479.961731,184.582047 
	C471.881378,180.820221 463.735046,177.056854 455.293610,174.265518 
	C449.841461,172.462677 447.587677,174.893494 447.865723,180.672714 
	C448.024780,183.979385 448.426666,187.294586 448.993683,190.558273 
	C454.577332,222.695312 473.757172,242.200073 504.910614,250.474106 
	C510.984375,252.087250 512.396545,250.896149 512.166199,244.535843 
	C511.405884,223.539566 504.683594,205.160583 487.956635,190.509521 
z"/>
<path fill="#505150" opacity="1.000000" stroke="none" 
	d="
M262.617920,569.394348 
	C249.261414,548.515869 236.104858,527.939758 222.462234,506.603516 
	C224.942368,506.366547 226.347946,506.116821 227.753784,506.115234 
	C249.416840,506.091095 271.080383,506.175110 292.742767,506.052307 
	C299.010925,506.016785 303.845337,508.281982 308.162170,512.813171 
	C325.513153,531.025635 343.052490,549.058655 360.531586,567.148926 
	C370.486816,577.452209 380.474701,587.724060 390.406769,598.049622 
	C391.634003,599.325439 392.607422,600.845520 394.430237,603.195984 
	C390.859192,603.920166 388.204315,604.918091 385.545990,604.927490 
	C354.551666,605.037231 323.556366,604.913574 292.562408,605.068298 
	C286.201569,605.100098 282.913177,601.268616 279.963776,596.696777 
	C274.184357,587.738159 268.526215,578.701233 262.617920,569.394348 
z"/>
<path fill="#505150" opacity="1.000000" stroke="none" 
	d="
M561.670532,262.926971 
	C557.318909,265.577881 556.680054,262.201904 556.309692,259.725098 
	C555.846924,256.629730 556.143982,253.416199 556.162903,250.253983 
	C556.413452,208.471634 556.673096,166.689331 556.928467,124.907021 
	C556.939209,123.143341 556.929810,121.379532 556.929810,118.504478 
	C565.866089,123.836464 573.898071,128.421616 581.722046,133.337784 
	C601.731140,145.910446 621.670837,158.593994 641.583313,171.319290 
	C646.102539,174.207382 646.044006,175.884171 642.216125,179.829758 
	C615.441711,207.427277 588.697632,235.054245 561.670532,262.926971 
z"/>
<path fill="#505150" opacity="1.000000" stroke="none" 
	d="
M724.631836,364.618347 
	C748.719299,339.874725 772.558777,315.382111 796.398254,290.889526 
	C796.830750,291.095154 797.263245,291.300781 797.695740,291.506409 
	C797.830322,293.070282 798.079651,294.634003 798.082092,296.198090 
	C798.113281,316.519165 797.991821,336.841431 798.195679,357.160522 
	C798.247864,362.364197 796.384033,365.196533 791.294556,366.415741 
	C763.304321,373.120972 735.346863,379.963196 707.367065,386.712097 
	C706.311401,386.966736 705.140747,386.744507 702.911865,386.744507 
	C710.493774,379.020233 717.438782,371.944794 724.631836,364.618347 
z"/>
<path fill="#505150" opacity="1.000000" stroke="none" 
	d="
M366.921417,243.000000 
	C366.918549,263.995972 366.965576,284.492218 366.855621,304.987610 
	C366.840332,307.838562 366.051483,310.685364 365.423126,314.840820 
	C342.569550,295.371155 320.836700,276.856293 298.090881,257.478455 
	C321.091431,243.238068 343.456635,229.391022 366.921509,214.863159 
	C366.921509,224.760757 366.921509,233.630386 366.921417,243.000000 
z"/>
<path fill="#4F5250" opacity="1.000000" stroke="none" 
	d="
M733.758118,309.809326 
	C731.216187,312.713959 729.551758,312.075836 728.645264,308.980133 
	C728.233398,307.573975 728.158569,306.030273 728.156860,304.548676 
	C728.129578,280.903717 728.138428,257.258728 728.141724,233.613754 
	C728.141846,232.781464 728.092163,231.939529 728.195679,231.118484 
	C728.846436,225.958481 731.145813,224.765076 735.537170,227.449829 
	C749.028625,235.698151 762.485596,244.003082 775.947815,252.299255 
	C778.601257,253.934464 781.218262,255.628693 784.369324,257.623047 
	C767.321533,275.203583 750.665466,292.380188 733.758118,309.809326 
z"/>
<path fill="#4E554F" opacity="1.000000" stroke="none" 
	d="
M565.401489,719.892578 
	C556.145874,720.201477 547.330444,720.658752 538.515503,720.648071 
	C536.678589,720.645813 533.531555,719.193176 533.259949,717.923218 
	C532.518555,714.455872 535.728455,714.184143 538.222107,714.070435 
	C547.361389,713.653809 556.505310,713.315002 565.650818,713.073608 
	C567.561218,713.023132 569.485962,713.512939 571.550720,713.772156 
	C571.442627,718.046387 569.058044,719.367737 565.401489,719.892578 
z"/>
<path fill="#4E554F" opacity="1.000000" stroke="none" 
	d="
M565.677612,963.944824 
	C570.610474,963.633606 575.083862,963.079529 579.532288,963.235474 
	C581.041504,963.288391 582.487793,965.133850 583.962769,966.160156 
	C582.552185,967.350342 581.287170,969.272156 579.702454,969.587402 
	C575.657104,970.392212 571.472717,970.525452 567.337524,970.843750 
	C562.705383,971.200378 558.069763,971.566650 553.428711,971.731384 
	C550.706970,971.827942 547.150452,972.487976 547.062744,968.247192 
	C546.978210,964.166992 550.497131,964.393555 553.247314,964.243103 
	C557.227173,964.025391 561.220642,964.055481 565.677612,963.944824 
z"/>
<path fill="#4E564F" opacity="1.000000" stroke="none" 
	d="
M549.207153,585.190186 
	C540.494751,586.625244 534.210632,585.835876 528.061462,582.654724 
	C532.030640,578.607239 557.873352,576.956665 563.584290,581.781555 
	C558.937805,582.895874 554.291260,584.010132 549.207153,585.190186 
z"/>
<path fill="#4F544F" opacity="1.000000" stroke="none" 
	d="
M553.258789,848.990845 
	C561.550842,849.956604 569.638428,846.977600 577.982483,849.988464 
	C570.884399,855.892578 551.353027,856.753723 543.078247,851.035767 
	C547.053589,850.198975 549.921875,849.595154 553.258789,848.990845 
z"/>
<path fill="#4E564F" opacity="1.000000" stroke="none" 
	d="
M551.886475,617.405640 
	C555.751526,617.179077 559.237976,616.831177 562.668823,617.126953 
	C564.112305,617.251465 565.438477,618.736145 566.817993,619.602539 
	C565.776794,620.889954 564.883362,623.099426 563.666992,623.294434 
	C559.794678,623.915283 555.797180,623.948242 551.859680,623.828125 
	C550.933533,623.799866 549.231018,622.166626 549.325684,621.466492 
	C549.512268,620.086975 550.707397,618.843872 551.886475,617.405640 
z"/>
<path fill="#4D574E" opacity="1.000000" stroke="none" 
	d="
M553.636353,661.898621 
	C552.249268,660.965393 550.780518,660.178406 550.506775,659.090698 
	C550.338684,658.422791 551.896301,656.638062 552.857239,656.486694 
	C557.037842,655.828369 561.283997,655.350891 565.506042,655.353577 
	C566.587219,655.354248 567.667053,657.349731 568.747437,658.428772 
	C567.637817,659.480103 566.627747,661.279602 565.399902,661.443115 
	C561.664795,661.940430 557.845581,661.806213 553.636353,661.898621 
z"/>
<path fill="#4D574E" opacity="1.000000" stroke="none" 
	d="
M572.697021,950.822754 
	C571.763611,950.884277 571.264404,950.953735 570.770935,950.924377 
	C568.281921,950.776306 564.616760,952.014709 564.383545,948.214233 
	C564.121277,943.940735 568.041321,944.311768 570.945190,944.155579 
	C573.588074,944.013428 576.304077,943.799377 578.872681,944.259644 
	C580.353943,944.525146 581.606995,946.064209 582.962708,947.030029 
	C582.898010,947.589539 582.833374,948.149048 582.768677,948.708557 
	C579.557068,949.400757 576.345459,950.092957 572.697021,950.822754 
z"/>
<path fill="#4E564F" opacity="1.000000" stroke="none" 
	d="
M562.704285,738.929443 
	C558.910339,738.593994 554.243652,740.535950 553.692261,735.223206 
	C553.612793,734.457275 559.280212,732.427795 562.384277,732.178040 
	C565.786255,731.904175 569.299683,733.015564 572.764587,733.523376 
	C572.836304,734.247314 572.908020,734.971252 572.979736,735.695251 
	C569.699097,736.768066 566.418457,737.840942 562.704285,738.929443 
z"/>
<path fill="#4F544F" opacity="1.000000" stroke="none" 
	d="
M550.971985,637.908447 
	C555.311096,637.117615 559.340393,636.308838 563.382446,636.238464 
	C564.552002,636.218079 565.758362,638.317627 566.947876,639.445312 
	C565.648499,640.599915 564.487671,642.473572 563.020264,642.756226 
	C560.147705,643.309753 557.074219,643.248474 554.140564,642.925903 
	C551.636475,642.650635 548.973572,641.823792 550.971985,637.908447 
z"/>
<path fill="#4E564F" opacity="1.000000" stroke="none" 
	d="
M561.573120,871.698425 
	C563.773499,867.148804 574.077271,865.031006 577.463684,868.197754 
	C579.694702,870.284058 579.215576,872.025574 576.284485,872.874207 
	C571.369202,874.297241 566.477539,874.768066 561.573120,871.698425 
z"/>
<path fill="#4F534F" opacity="1.000000" stroke="none" 
	d="
M569.803223,678.646851 
	C564.431091,679.564026 559.186340,680.151855 553.925598,680.496948 
	C553.359924,680.534058 552.158203,679.112183 552.216675,678.452759 
	C552.299622,677.518860 553.214844,675.952332 553.887573,675.890564 
	C558.638672,675.454651 563.419556,675.224426 568.188782,675.255920 
	C568.774353,675.259827 569.347168,677.202759 569.803223,678.646851 
z"/>
<path fill="#4F5250" opacity="1.000000" stroke="none" 
	d="
M558.445129,758.053833 
	C557.027405,756.961243 556.048157,755.888916 555.068909,754.816650 
	C556.258545,753.893311 557.347107,752.389709 558.657837,752.161438 
	C561.892395,751.598083 565.248962,751.320923 568.515320,751.540283 
	C570.005188,751.640259 571.397949,753.184509 572.834778,754.073669 
	C571.632629,755.124084 570.560547,756.825195 569.202698,757.096619 
	C565.832458,757.770203 562.331787,757.791077 558.445129,758.053833 
z"/>
<path fill="#4F534F" opacity="1.000000" stroke="none" 
	d="
M561.115112,829.555054 
	C565.458496,829.220276 569.447021,828.949524 573.425659,829.055054 
	C574.466797,829.082703 575.476868,830.279602 576.501221,830.939453 
	C575.592773,831.944763 574.836914,833.572693 573.747498,833.839600 
	C570.369507,834.667297 566.878296,835.239075 563.405579,835.419312 
	C559.503723,835.621765 558.580322,833.420837 561.115112,829.555054 
z"/>
<path fill="#4E554F" opacity="1.000000" stroke="none" 
	d="
M571.323364,795.932312 
	C567.733704,796.013550 564.542847,796.322388 561.422302,795.983582 
	C559.583374,795.783875 557.855957,794.557007 556.268066,793.141418 
	C562.530640,789.832886 568.571289,788.949585 575.647949,792.899414 
	C574.039124,794.133423 572.895447,795.010559 571.323364,795.932312 
z"/>
<path fill="#4F544F" opacity="1.000000" stroke="none" 
	d="
M573.043823,925.015259 
	C575.965210,925.484558 578.452454,925.965881 580.939636,926.447205 
	C581.061768,927.042175 581.183960,927.637207 581.306091,928.232178 
	C579.622803,929.131531 578.019470,930.532837 576.238159,930.816528 
	C573.316040,931.281921 570.266724,931.187378 567.295532,930.979309 
	C566.227722,930.904480 565.230713,929.819336 564.201355,929.195312 
	C565.045959,928.142151 565.687622,926.601807 566.781189,926.146301 
	C568.569214,925.401733 570.651428,925.363525 573.043823,925.015259 
z"/>
<path fill="#505150" opacity="1.000000" stroke="none" 
	d="
M555.415833,699.755798 
	C551.830811,696.624023 553.264160,694.773499 556.754517,694.417908 
	C559.998047,694.087463 563.361267,694.527405 566.618347,694.997864 
	C567.508972,695.126465 568.866516,696.624573 568.818848,697.423218 
	C568.765320,698.320679 567.412781,699.808350 566.539673,699.872498 
	C562.957031,700.135681 559.341858,699.954895 555.415833,699.755798 
z"/>
<path fill="#4E564F" opacity="1.000000" stroke="none" 
	d="
M579.033691,909.398987 
	C575.070679,913.488281 570.422607,911.727051 566.097412,911.563660 
	C565.471375,911.539978 564.912354,909.742249 564.322327,908.765503 
	C567.002563,907.693726 569.627197,905.979370 572.379456,905.741394 
	C574.846375,905.528137 578.548828,904.817749 579.033691,909.398987 
z"/>
<path fill="#4F534F" opacity="1.000000" stroke="none" 
	d="
M551.630859,604.009155 
	C548.703796,602.543213 547.817078,600.592102 550.901123,599.323059 
	C555.751770,597.326904 560.798157,596.897705 565.960693,600.114624 
	C562.059143,605.361450 556.778931,603.752319 551.630859,604.009155 
z"/>
<path fill="#4E564F" opacity="1.000000" stroke="none" 
	d="
M561.590698,771.102173 
	C565.531067,771.086243 569.043823,771.086243 573.162354,771.086243 
	C569.729980,778.081360 563.181091,778.841797 555.880127,773.574890 
	C557.945862,772.614258 559.554504,771.866211 561.590698,771.102173 
z"/>
<path fill="#4D574E" opacity="1.000000" stroke="none" 
	d="
M573.351318,814.792786 
	C568.508423,814.875549 564.044006,814.875549 559.118164,814.875549 
	C562.675415,808.651733 571.705627,807.651428 575.047546,812.423828 
	C575.261047,812.728760 574.198608,813.927246 573.351318,814.792786 
z"/>
<path fill="#4E564F" opacity="1.000000" stroke="none" 
	d="
M574.420959,887.104492 
	C578.038513,888.788391 577.827515,890.519836 574.736328,891.812744 
	C571.053894,893.352844 567.424194,893.293274 564.074768,890.230408 
	C566.390076,885.690430 570.521790,887.335693 574.420959,887.104492 
z"/>
<path fill="#27BA36" opacity="1.000000" stroke="none" 
	d="
M367.121826,438.112549 
	C353.134521,440.218170 340.065765,437.908264 327.694519,432.650635 
	C319.793884,429.292999 312.333588,424.744171 305.052094,420.135071 
	C299.511719,416.628082 299.817200,413.446289 305.247406,409.949463 
	C322.854645,398.611084 341.752228,391.708466 363.086761,392.983673 
	C381.376068,394.076843 397.099182,401.311340 411.219788,412.600952 
	C414.525452,415.243866 414.671906,418.147888 411.239655,420.187012 
	C403.146790,424.995178 395.028656,429.927948 386.414459,433.633331 
	C380.576385,436.144562 373.878937,436.657990 367.121826,438.112549 
z"/>
<path fill="#28B936" opacity="1.000000" stroke="none" 
	d="
M473.074799,507.190308 
	C473.049377,510.324799 473.066956,512.990295 472.992920,515.653198 
	C472.849640,520.806152 470.913666,523.014099 465.677704,523.034973 
	C442.197845,523.128357 418.717255,523.032898 395.237030,523.068054 
	C390.856964,523.074646 388.806580,521.165833 388.933838,516.718872 
	C389.062378,512.226685 388.947113,507.727661 388.947479,503.231628 
	C388.947754,500.086823 390.390076,498.216797 393.636230,497.902374 
	C395.620667,497.710144 397.597778,497.258667 399.579498,497.250671 
	C420.728424,497.165314 441.877686,497.090790 463.026611,497.135742 
	C470.917175,497.152527 472.871887,499.168884 473.074799,507.190308 
z"/>
<path fill="#27BA36" opacity="1.000000" stroke="none" 
	d="
M729.688538,515.687378 
	C733.360107,511.803986 736.773560,508.163147 740.206543,504.540771 
	C744.010986,500.526459 744.239197,498.365570 740.378296,494.312042 
	C735.224365,488.900879 729.875732,483.660797 724.397461,478.577026 
	C718.536438,473.138062 718.410461,470.929230 724.182861,465.326172 
	C727.049072,462.544128 729.753052,459.594666 732.627502,456.821625 
	C737.289551,452.324097 739.233948,452.194824 744.002014,456.706268 
	C749.561829,461.966858 754.839966,467.524292 760.268494,472.924591 
	C765.086426,477.717407 766.401550,477.828491 771.374390,473.066956 
	C776.662415,468.003571 781.635437,462.611664 786.909546,457.532990 
	C791.699463,452.920502 795.033386,452.735535 800.033752,456.936401 
	C803.335999,459.710754 806.427734,462.792908 809.281250,466.030304 
	C813.031250,470.284668 812.805359,472.765381 808.911560,476.813080 
	C803.377014,482.566376 797.813538,488.291901 792.302795,494.067932 
	C788.011597,498.565765 788.056946,500.586395 792.313171,504.983429 
	C797.983887,510.841919 803.643311,516.711548 809.281860,522.601013 
	C813.001831,526.486572 813.083923,528.887329 809.388977,532.866394 
	C805.992004,536.524475 802.479004,540.081848 798.893250,543.555725 
	C794.747803,547.571960 792.890686,547.568604 788.842773,543.530518 
	C782.950500,537.652405 777.188171,531.644226 771.312988,525.748657 
	C767.402527,521.824585 765.208557,521.675354 761.140259,525.467651 
	C756.271973,530.005676 751.710571,534.871216 746.896179,539.469177 
	C738.802856,547.198608 733.224731,546.901733 725.950989,538.519531 
	C717.209229,528.445557 717.217224,528.209106 726.619507,518.768494 
	C727.559265,517.824890 728.499207,516.881470 729.688538,515.687378 
z"/>
<path fill="#27BA36" opacity="1.000000" stroke="none" 
	d="
M615.856323,561.223083 
	C614.024658,545.351135 617.058533,530.613525 622.462402,516.306152 
	C630.312256,495.522583 644.523376,480.146210 663.543091,469.009094 
	C668.496887,466.108459 670.545044,466.628784 672.021973,471.994537 
	C682.614624,510.478088 676.865723,545.265076 647.802856,574.275635 
	C642.316528,579.752136 635.663269,584.109436 629.309692,588.648865 
	C625.404602,591.438904 623.059998,590.799438 621.778381,586.317810 
	C619.458435,578.205750 617.815979,569.899963 615.856323,561.223083 
z"/>
<path fill="#28B936" opacity="1.000000" stroke="none" 
	d="
M447.968140,263.271118 
	C449.996582,261.968567 451.791016,260.424072 453.712708,260.245026 
	C458.001373,259.845367 462.359161,259.991608 466.678223,260.170654 
	C470.748871,260.339447 473.127380,262.313293 473.049713,266.772430 
	C472.954041,272.261932 472.958160,277.761230 473.176910,283.246002 
	C473.405304,288.972595 474.742798,290.076691 480.510651,290.221863 
	C486.325470,290.368164 492.138000,290.679474 497.952942,290.720306 
	C501.749237,290.746948 503.497803,292.792297 503.663055,296.208466 
	C503.903992,301.188599 504.139130,306.208405 503.773346,311.166779 
	C503.451660,315.526947 500.751404,318.032562 496.106628,318.003754 
	C490.947510,317.971771 485.786835,317.932739 480.629059,318.023254 
	C475.110016,318.120117 473.208618,320.045807 473.092743,325.625580 
	C472.989105,330.616760 472.923859,335.613251 473.036438,340.602997 
	C473.140015,345.194550 471.320190,347.909882 466.528595,348.254028 
	C464.209900,348.420532 461.900757,348.838989 459.582886,348.877289 
	C449.579407,349.042542 447.427643,346.849640 447.068298,336.664856 
	C446.904572,332.024597 446.550354,327.389252 446.199158,322.757996 
	C445.866669,318.373199 443.156097,316.837738 439.065338,316.899323 
	C434.572906,316.966980 430.075012,317.011108 425.585602,316.870697 
	C417.350220,316.613159 414.481018,313.219727 415.464081,305.139160 
	C415.584534,304.148865 415.760406,303.163391 415.837708,302.170013 
	C416.752289,290.412109 416.962463,290.195312 429.042389,290.232513 
	C432.363892,290.242767 435.689545,290.358093 439.004974,290.560944 
	C444.343506,290.887543 446.824921,288.873199 447.088959,283.529663 
	C447.416138,276.907288 447.565643,270.276184 447.968140,263.271118 
z"/>
<path fill="#27BA36" opacity="1.000000" stroke="none" 
	d="
M488.228027,190.740234 
	C504.683594,205.160583 511.405884,223.539566 512.166199,244.535843 
	C512.396545,250.896149 510.984375,252.087250 504.910614,250.474106 
	C473.757172,242.200073 454.577332,222.695312 448.993683,190.558273 
	C448.426666,187.294586 448.024780,183.979385 447.865723,180.672714 
	C447.587677,174.893494 449.841461,172.462677 455.293610,174.265518 
	C463.735046,177.056854 471.881378,180.820221 479.961731,184.582047 
	C482.907990,185.953674 485.307617,188.499435 488.228027,190.740234 
z"/>
</svg>