<svg version="1.1" id="Layer_1" xmlns="http://www.w3.org/2000/svg" xmlns:xlink="http://www.w3.org/1999/xlink" x="0px" y="0px"
	 width="100%" viewBox="0 0 1024 1024" enable-background="new 0 0 1024 1024" xml:space="preserve">
<path fill="#000000" opacity="1.000000" stroke="none" 
	d="
M315.013062,533.934265 
	C304.674072,517.771362 294.608246,501.863647 284.335114,486.090973 
	C281.977905,482.471893 282.271332,479.704895 284.628296,476.168610 
	C299.225494,454.267639 313.555756,432.188873 328.117981,410.264374 
	C330.162292,407.186432 331.078064,404.132355 331.064667,400.483398 
	C330.982056,377.987701 331.097504,355.491180 330.977356,332.995850 
	C330.956329,329.066589 332.231781,326.562958 335.665497,324.476471 
	C390.620239,291.083374 445.415558,257.426819 500.473114,224.204742 
	C515.857666,214.921631 510.076843,214.840439 525.406128,224.084564 
	C552.080444,240.170212 578.478943,256.713745 604.969421,273.103577 
	C611.066895,276.876160 611.081726,277.453735 606.141724,282.572876 
	C579.996277,309.666443 553.890381,336.798340 527.662842,363.812164 
	C524.231079,367.346832 522.625366,370.796875 522.700073,376.051819 
	C523.008118,397.702606 523.239929,419.364075 522.522766,441.023041 
	C522.153809,452.166504 522.404053,463.330719 522.393433,474.485535 
	C522.392029,475.951172 522.165710,477.509338 523.443176,478.638214 
	C525.106567,478.753601 525.840576,477.480255 526.740234,476.573273 
	C554.431946,448.656128 582.078613,420.694275 609.833374,392.840027 
	C612.229675,390.435089 612.693115,387.872009 612.686584,384.750793 
	C612.618042,352.089935 612.623535,319.428864 612.638733,286.767853 
	C612.639893,284.330170 612.251221,281.814789 613.247559,279.587189 
	C615.383057,278.842468 616.703552,280.030457 618.091614,280.871796 
	C642.166016,295.464203 666.190796,310.139465 690.344238,324.599670 
	C694.043823,326.814514 695.086975,329.567139 695.063171,333.604889 
	C694.931702,355.933533 695.045837,378.263580 694.929749,400.592346 
	C694.908813,404.616730 696.037109,407.950348 698.266907,411.285767 
	C712.339233,432.335449 726.164062,453.550995 740.299500,474.557770 
	C743.430115,479.210266 744.160522,482.865875 740.787720,487.989288 
	C722.927551,515.119812 705.438293,542.494568 687.870789,569.817078 
	C686.316467,572.234619 684.203796,572.961914 681.531738,572.957581 
	C651.037781,572.908081 620.543579,572.934753 590.050415,572.763611 
	C587.294983,572.748169 585.337646,573.301880 583.457092,575.293152 
	C570.531311,588.979858 557.531372,602.596497 544.538391,616.219604 
	C543.217590,617.604431 542.450623,619.033813 542.557617,621.091187 
	C544.450684,657.494385 546.326172,693.898560 548.096191,730.307861 
	C548.945007,747.768311 549.625244,765.237671 550.262390,782.707336 
	C550.516174,789.665894 550.369385,789.689758 557.138306,789.692810 
	C579.134521,789.702820 601.131958,789.817322 623.126099,789.602661 
	C627.770691,789.557434 629.238281,791.073425 629.133911,795.604004 
	C628.761414,811.775452 630.591125,809.075989 615.532593,809.094971 
	C545.544861,809.183105 475.556976,809.139282 405.569153,809.137512 
	C397.003967,809.137329 396.988129,809.122864 397.004059,800.642456 
	C397.028107,787.864014 395.968292,789.773499 407.902985,789.719543 
	C428.232391,789.627563 448.564606,789.537354 468.890900,789.805054 
	C473.752930,789.869019 475.390076,788.073853 475.573914,783.577576 
	C476.185852,768.608276 477.171509,753.651978 477.617981,738.678833 
	C478.332520,714.716125 480.217163,690.822998 481.422028,666.892334 
	C482.175354,651.929749 482.465790,636.940491 483.585144,621.992737 
	C483.777466,619.424316 482.656830,617.576172 480.961151,615.803772 
	C468.176788,602.440796 455.398010,589.071960 442.719177,575.609131 
	C440.509644,573.262939 437.966888,572.927063 435.041199,572.931885 
	C405.879700,572.980225 376.717163,572.854065 347.557465,573.092590 
	C342.094696,573.137207 338.672760,571.504639 335.820129,566.724426 
	C329.251068,555.716370 322.116272,545.045898 315.013062,533.934265 
M422.593933,525.930237 
	C442.834106,547.141052 463.074249,568.351868 483.314423,589.562622 
	C483.744324,589.284912 484.174194,589.007202 484.604095,588.729553 
	C485.092377,578.622131 485.527649,568.511902 486.079041,558.407959 
	C487.584656,530.817139 489.080261,503.225372 490.738403,475.643524 
	C490.986023,471.524078 489.553528,468.806152 486.413971,466.283142 
	C478.885498,460.232971 471.606567,453.873077 464.198761,447.671753 
	C427.658539,417.082947 391.111786,386.501892 354.549774,355.939087 
	C353.495483,355.057770 352.654541,353.478851 350.378723,354.385773 
	C350.378723,355.911072 350.378174,357.546844 350.378784,359.182648 
	C350.384613,374.181427 350.159058,389.185699 350.515167,404.176178 
	C350.649994,409.851776 348.976105,414.422485 345.923828,419.010620 
	C335.404846,434.822571 325.100739,450.777771 314.771179,466.714935 
	C313.937561,468.001068 312.334717,469.142120 313.126221,471.100922 
	C314.888916,472.069244 316.757263,471.657654 318.549530,471.662262 
	C334.048248,471.701965 349.547485,471.753510 365.045502,471.644196 
	C368.266663,471.621490 370.738525,472.471649 373.017914,474.836243 
	C389.322815,491.750214 405.724152,508.571259 422.593933,525.930237 
M645.710632,429.323608 
	C627.776611,433.728210 609.851318,438.168884 591.901123,442.506592 
	C588.375122,443.358673 585.561829,445.033844 583.016113,447.646454 
	C568.833618,462.201752 554.633057,476.743103 540.190796,491.038818 
	C536.972229,494.224762 536.080627,497.471405 536.415649,501.728394 
	C537.185486,511.510864 537.759094,521.312256 538.216553,531.115051 
	C539.015869,548.241394 539.644043,565.375671 540.408752,582.503723 
	C540.516296,584.912354 540.990479,587.304565 541.294922,589.704407 
	C541.900635,590.085571 542.506287,590.466736 543.112000,590.847900 
	C544.100281,589.329285 544.882080,587.615051 546.107788,586.321289 
	C566.610779,564.679565 587.095703,543.019714 607.744751,521.517639 
	C618.971252,509.827271 615.472961,509.438202 628.274292,521.479370 
	C630.940247,523.987061 630.895142,526.077148 628.390808,528.642456 
	C622.108521,535.077515 615.925415,541.610413 609.774719,548.171753 
	C608.616333,549.407471 606.643250,550.256470 607.033997,552.660583 
	C608.960876,553.979431 611.185364,553.609253 613.297607,553.612244 
	C632.122986,553.638550 650.949097,553.532349 669.773132,553.689148 
	C673.366638,553.719055 675.552673,552.553955 677.474365,549.531311 
	C691.234680,527.887573 705.118652,506.322052 719.052124,484.789154 
	C720.410583,482.689697 720.621582,481.106995 719.188965,478.942505 
	C707.146973,460.749054 695.163147,442.516541 683.273743,424.223114 
	C681.519043,421.523376 679.611816,420.932281 676.575256,421.728149 
	C666.595154,424.343750 656.553833,426.726013 645.710632,429.323608 
M422.046173,376.446564 
	C422.593140,380.861328 420.578003,385.605408 425.127289,389.389740 
	C449.332703,409.525146 473.357941,429.877045 497.504700,450.083344 
	C498.886292,451.239502 500.111725,453.219971 502.427612,452.615692 
	C502.427612,384.026794 502.427612,315.571442 502.427612,246.631927 
	C500.647705,247.423065 499.528198,247.777527 498.556793,248.373428 
	C474.137451,263.353821 449.758057,278.399597 425.295288,293.308685 
	C422.346283,295.105957 422.029053,297.496857 422.035400,300.480377 
	C422.088501,325.473999 422.059631,350.467773 422.046173,376.446564 
M319.380310,504.164001 
	C329.078430,519.297363 338.823395,534.401123 348.432281,549.590942 
	C350.198761,552.383484 352.160492,553.763062 355.649567,553.734131 
	C374.792297,553.575562 393.937012,553.658508 413.081024,553.645386 
	C415.345367,553.643799 417.649902,553.730957 419.844574,552.245544 
	C419.326019,551.484436 419.033783,550.889648 418.595459,550.436035 
	C400.321838,531.524475 382.014984,512.644958 363.779449,493.696808 
	C361.842285,491.683929 359.654022,491.210968 357.045654,491.223816 
	C345.226593,491.282043 333.407074,491.250885 321.587738,491.251740 
	C318.503235,491.251984 315.418732,491.251770 311.267120,491.251770 
	C314.285797,496.040314 316.649689,499.790161 319.380310,504.164001 
M522.473572,335.645142 
	C523.929688,341.095795 525.941895,337.226227 527.352905,335.776398 
	C543.706299,318.972260 559.992798,302.102936 576.260803,285.215942 
	C577.348877,284.086517 579.032471,283.241089 578.844727,280.822845 
	C561.136047,268.402130 542.255310,257.487915 522.856201,245.724411 
	C522.783569,276.191162 523.391357,305.544678 522.473572,335.645142 
M663.657471,366.155731 
	C647.656799,382.544678 631.656189,398.933624 615.179321,415.810303 
	C616.512939,415.810303 617.011902,415.905670 617.461182,415.796539 
	C635.725342,411.359833 653.982666,406.894775 672.247925,402.462433 
	C675.096313,401.771240 675.705383,399.851349 675.666077,397.223969 
	C675.569092,390.730988 675.632812,384.235626 675.632446,377.741211 
	C675.632019,370.328979 675.632324,362.916718 675.632324,355.504486 
	C675.217407,355.311646 674.802429,355.118774 674.387512,354.925934 
	C670.976318,358.501404 667.565125,362.076874 663.657471,366.155731 
M402.622131,364.095154 
	C402.622131,345.583984 402.622131,327.072815 402.622131,307.015198 
	C387.283081,316.487152 373.470123,325.016693 359.155792,333.855865 
	C373.778442,346.318298 387.490784,358.004944 401.273499,369.751587 
	C402.926453,367.953613 402.479401,366.391937 402.622131,364.095154 
M633.060364,368.786346 
	C644.224915,357.236694 655.389465,345.687042 666.884338,333.795654 
	C655.836731,327.029755 644.481750,320.075562 633.375732,313.273895 
	C631.177307,315.164703 631.416931,316.902161 631.414673,318.537140 
	C631.393738,333.669464 631.388184,348.801819 631.405273,363.934143 
	C631.407104,365.569885 631.185730,367.294739 633.060364,368.786346 
M515.839844,622.373596 
	C514.025391,622.537781 512.199585,622.624939 510.400421,622.892151 
	C509.127258,623.081238 507.505249,623.216431 507.599335,625.037170 
	C507.693542,626.860352 509.262146,626.861389 510.588776,626.838013 
	C516.225952,626.738831 521.870117,626.718628 527.494324,626.379761 
	C529.391418,626.265503 532.008850,626.464539 532.449707,622.505859 
	C527.148865,621.631714 521.923889,622.531067 515.839844,622.373596 
M522.641602,781.179138 
	C521.815369,781.191956 520.986084,781.164307 520.163574,781.226135 
	C518.561462,781.346558 516.450806,781.042114 516.478394,783.442017 
	C516.510437,786.239563 518.880737,785.714294 520.572693,785.626343 
	C525.847900,785.352051 531.124634,785.013855 536.378967,784.484680 
	C537.985229,784.322937 540.237976,784.492493 540.391296,781.345215 
	C534.830994,778.888916 529.137390,781.589050 522.641602,781.179138 
M519.410583,537.174622 
	C514.437866,537.717773 509.081329,536.266785 503.884583,539.403320 
	C508.716492,542.850220 523.593262,541.803833 527.409424,538.274780 
	C525.277893,536.232483 522.700745,537.302490 519.410583,537.174622 
M526.447021,708.019409 
	C522.514282,708.678711 518.037781,706.831238 514.113098,710.209351 
	C519.245789,712.893921 533.161926,712.158936 536.388794,709.223633 
	C533.574768,706.896851 530.345154,708.311951 526.447021,708.019409 
M537.631897,768.386414 
	C534.982544,768.423035 532.329468,768.388184 529.685547,768.527222 
	C528.418457,768.593811 527.477844,769.342163 527.525024,770.766541 
	C527.575317,772.287170 528.682983,772.714600 529.938599,772.636719 
	C532.411011,772.483276 534.909485,772.380310 537.332703,771.918274 
	C539.332153,771.536987 540.433899,770.425903 537.631897,768.386414 
M524.469482,561.366638 
	C522.033142,561.726074 517.770569,560.626343 517.914490,563.677917 
	C518.094421,567.494263 522.395081,564.972534 524.792664,565.644409 
	C524.941956,565.686157 525.120911,565.651489 525.280579,565.622559 
	C526.991394,565.311646 529.394714,565.510803 529.241150,563.021362 
	C529.093628,560.629211 526.758484,561.623291 524.469482,561.366638 
M520.759888,586.107971 
	C519.540161,586.356506 518.454163,586.818481 518.714722,588.326477 
	C518.869080,589.220337 519.661011,589.672119 520.546692,589.672974 
	C523.177917,589.675537 525.813416,589.692505 528.438538,589.546570 
	C529.735718,589.474426 530.562866,588.600525 530.460144,587.222473 
	C530.368591,585.994446 529.380554,585.721680 528.351501,585.581238 
	C526.039429,585.265747 523.754211,585.390625 520.759888,586.107971 
M522.240051,638.422363 
	C525.880615,638.416809 529.611023,638.764954 533.711304,635.775879 
	C529.154785,633.407043 525.350952,634.091919 521.787781,634.707092 
	C519.922668,635.029053 520.109558,636.872925 522.240051,638.422363 
M529.148926,574.129333 
	C526.344666,572.592896 523.415100,573.315979 520.568237,573.825012 
	C518.983887,574.108215 517.451660,575.618408 519.031433,576.900330 
	C521.293884,578.736267 524.382751,577.521362 527.111816,577.593628 
	C528.888733,577.640686 529.863159,576.701599 529.148926,574.129333 
M530.010925,646.346191 
	C528.024963,646.440674 526.025208,646.423828 524.057800,646.668152 
	C522.716858,646.834717 521.337402,647.393005 521.563782,649.154114 
	C521.759338,650.676453 523.087524,650.794556 524.252075,650.713562 
	C526.562195,650.553040 528.867432,650.285095 531.163574,649.978271 
	C532.160278,649.845032 533.239075,649.497925 533.243896,648.250183 
	C533.249939,646.686768 531.984314,646.521790 530.010925,646.346191 
M534.586914,698.502258 
	C536.440125,696.455261 535.330444,695.513855 533.223328,695.347961 
	C531.083374,695.179443 528.912598,695.316711 526.760193,695.420898 
	C525.283020,695.492310 524.119263,696.114014 524.338928,697.860962 
	C524.526367,699.351318 525.746704,699.647095 526.948547,699.551392 
	C529.260071,699.367554 531.559204,699.028137 534.586914,698.502258 
M535.277771,719.596924 
	C531.941223,719.880249 528.180359,718.428223 525.029053,722.204407 
	C528.853577,724.580750 532.507935,724.081360 535.979431,722.959839 
	C537.421021,722.494202 537.156799,720.838196 535.277771,719.596924 
M525.423645,601.829773 
	C526.419189,601.798767 527.415955,601.789978 528.409912,601.731628 
	C529.991394,601.638855 531.634155,601.366821 531.319214,599.273499 
	C531.038940,597.410828 529.366028,597.855408 528.095337,597.897705 
	C525.939392,597.969543 523.783691,598.092041 521.632812,598.256592 
	C520.584473,598.336853 519.625061,598.739624 519.615845,599.989868 
	C519.606750,601.231812 520.535034,601.660950 521.596436,601.756958 
	C522.585571,601.846375 523.584961,601.821533 525.423645,601.829773 
M529.402893,674.690491 
	C531.175964,674.355286 533.461365,675.443787 534.768372,672.297546 
	C530.589966,670.057861 526.690186,670.769775 522.150940,672.143738 
	C523.939575,675.547913 526.449585,674.551636 529.402893,674.690491 
M523.997986,686.062378 
	C527.791016,687.520447 531.412476,687.155579 535.552124,685.626343 
	C531.486450,682.132141 526.201965,682.301025 523.997986,686.062378 
M530.501831,610.471680 
	C527.860657,610.426208 525.218018,610.311035 522.578918,610.365417 
	C521.303345,610.391785 519.994812,611.170715 520.709595,612.528992 
	C521.989319,614.960876 524.555786,614.088806 526.541931,613.866577 
	C528.336121,613.665710 531.765320,615.234619 530.501831,610.471680 
M519.312805,553.369446 
	C522.529663,553.107361 526.077026,553.998535 529.101807,550.740234 
	C525.371765,548.445740 522.033203,549.040344 518.818298,550.137207 
	C517.157959,550.703613 517.149414,552.023804 519.312805,553.369446 
M530.406372,760.114258 
	C533.096436,759.386841 536.600159,761.277100 538.757080,757.593445 
	C535.471924,755.483154 532.253662,756.270081 529.107483,756.757935 
	C528.121582,756.910889 527.267761,757.654602 527.406250,758.827881 
	C527.561523,760.144592 528.685364,760.079651 530.406372,760.114258 
M528.035461,658.867188 
	C526.093384,659.189514 523.666687,658.241943 522.424500,660.785095 
	C526.409729,663.643677 530.748535,663.234802 533.384277,659.898621 
	C532.175598,658.196960 530.415955,658.838867 528.035461,658.867188 
M530.141602,747.981934 
	C532.618469,747.461609 535.836914,749.050049 537.553711,745.386230 
	C534.422913,743.234924 531.227966,743.721802 528.492188,745.109009 
	C525.990112,746.377808 526.992676,747.645325 530.141602,747.981934 
M534.271606,732.196716 
	C531.856201,732.376404 529.128479,731.395874 526.875916,734.071838 
	C529.643311,736.347900 532.352600,736.018921 534.944946,735.025452 
	C536.664185,734.366516 536.618652,733.177307 534.271606,732.196716 
z"/>
<path fill="#000000" opacity="1.000000" stroke="none" 
	d="
M559.000488,380.218140 
	C553.334290,380.206604 548.167053,380.132935 543.001770,380.204651 
	C539.939514,380.247101 538.560486,379.213440 538.515869,375.841125 
	C538.359192,364.005829 538.244995,363.991486 550.203247,363.971313 
	C561.869324,363.951660 573.537415,364.097137 585.200378,363.906555 
	C589.805176,363.831329 591.293091,365.656097 591.234070,370.144196 
	C591.101746,380.215881 591.275940,380.219391 580.999512,380.220673 
	C573.833130,380.221558 566.666687,380.218475 559.000488,380.218140 
z"/>
<path fill="#000000" opacity="1.000000" stroke="none" 
	d="
M553.008179,402.282623 
	C551.513306,402.281769 550.516357,402.281281 549.519409,402.280121 
	C538.161072,402.266907 536.898132,400.684967 538.616211,389.281982 
	C539.017029,386.621887 540.602783,386.038452 542.750061,386.031494 
	C557.537598,385.983551 572.325378,385.969330 587.113037,385.963440 
	C588.916199,385.962738 590.559875,386.572205 590.874268,388.526001 
	C591.482971,392.308502 591.574341,396.166565 590.810303,399.917603 
	C590.290833,402.468353 587.887512,402.238647 585.906982,402.244507 
	C575.106812,402.276367 564.306458,402.273560 553.008179,402.282623 
z"/>
<path fill="#000000" opacity="1.000000" stroke="none" 
	d="
M423.708679,441.872437 
	C402.447113,452.435791 382.566071,450.352356 363.634918,436.987335 
	C360.741821,434.944824 359.675781,432.962646 363.328979,430.560028 
	C384.333282,416.746155 408.037537,414.563934 429.310516,430.855225 
	C430.613922,431.853424 432.084839,432.739502 432.725403,434.656464 
	C430.709656,437.987518 427.109772,439.526276 423.708679,441.872437 
z"/>
<path fill="#000000" opacity="1.000000" stroke="none" 
	d="
M465.503601,502.002319 
	C451.093414,502.018433 437.135437,502.064362 423.178650,501.957001 
	C416.712341,501.907257 416.523254,501.557129 416.593750,495.144928 
	C416.698181,485.644348 415.227661,485.691193 426.071381,485.713531 
	C438.699768,485.739532 451.332031,485.888733 463.954834,485.619507 
	C468.659607,485.519135 470.289795,487.370880 469.968109,491.751373 
	C469.822388,493.736053 469.912811,495.737030 469.848145,497.729065 
	C469.766754,500.237732 468.610413,501.801544 465.503601,502.002319 
z"/>
<path fill="#000000" opacity="1.000000" stroke="none" 
	d="
M638.564941,490.660065 
	C641.719971,488.115387 641.529846,485.973236 638.829712,483.481934 
	C635.042114,479.987305 631.558960,476.164764 627.828491,472.605286 
	C625.445068,470.331207 624.803223,468.296906 627.862732,466.139832 
	C628.401062,465.760315 628.840271,465.238861 629.319397,464.776855 
	C639.002747,455.440033 636.468567,455.261536 646.647949,465.171478 
	C656.026489,474.301727 653.388611,475.688019 663.879822,464.950714 
	C672.788574,455.833038 672.385315,455.811096 681.596802,464.591400 
	C685.390076,468.207123 685.172302,470.444122 681.391174,473.656921 
	C677.987305,476.549133 675.247803,480.208832 671.986572,483.287750 
	C669.219727,485.899902 669.002502,487.950653 671.958496,490.658813 
	C675.754211,494.136261 679.060425,498.144836 682.818542,501.667419 
	C685.000732,503.712891 685.266113,505.340393 683.148254,507.476410 
	C670.651611,520.080200 674.567444,519.449707 663.281921,508.374420 
	C654.478638,499.735138 657.260559,498.284393 646.884277,508.605804 
	C646.766296,508.723175 646.649963,508.842194 646.534363,508.961853 
	C637.086243,518.736023 634.272278,518.420349 626.500916,507.016785 
	C625.124512,504.997101 625.656799,503.793793 627.145691,502.312927 
	C630.920654,498.558258 634.601440,494.708801 638.564941,490.660065 
z"/>
<path fill="#000000" opacity="1.000000" stroke="none" 
	d="
M565.098999,544.580383 
	C559.983765,533.852051 558.904358,522.832642 560.704773,511.406982 
	C563.653503,492.694855 572.990662,478.230316 589.188232,468.353790 
	C594.056152,465.385590 594.935730,465.809937 596.347107,471.241638 
	C603.610962,499.196320 595.345032,526.068970 570.318726,542.348633 
	C568.803467,543.334290 567.384399,544.586609 565.098999,544.580383 
z"/>
<path fill="#000000" opacity="1.000000" stroke="none" 
	d="
M453.441925,378.750641 
	C452.663361,371.379578 452.663361,371.379517 445.774536,371.358154 
	C445.441925,371.357147 445.109314,371.357269 444.776703,371.356750 
	C432.879303,371.337860 432.780090,371.155121 433.796173,358.964447 
	C434.037933,356.063934 435.198761,354.728027 438.101166,354.771606 
	C441.426239,354.821594 444.766724,354.562134 448.075592,354.793396 
	C452.311401,355.089417 453.746490,353.064850 453.618317,349.167023 
	C453.519989,346.177277 453.770996,343.172333 453.597534,340.189789 
	C453.391418,336.646179 455.009247,335.564758 458.352844,335.643219 
	C470.978241,335.939667 469.941345,333.687531 469.994934,346.893921 
	C470.026703,354.726532 469.982147,354.682068 477.944092,354.748413 
	C490.743042,354.855072 489.088104,353.118744 489.395966,366.214966 
	C489.498291,370.568481 487.910156,372.307953 483.647583,372.110809 
	C480.496155,371.965057 477.327972,372.221222 474.170990,372.144104 
	C471.208557,372.071686 469.929596,373.422180 469.954376,376.331604 
	C469.985535,379.988617 469.915741,383.647095 469.848328,387.304199 
	C469.795929,390.147949 468.399750,391.262421 465.466400,391.410797 
	C453.571869,392.012512 453.576324,392.100494 453.441925,378.750641 
z"/>
<path fill="#000000" opacity="1.000000" stroke="none" 
	d="
M478.302734,290.658081 
	C490.184143,300.108368 494.236176,312.742981 494.883972,326.933533 
	C495.013336,329.766937 493.719025,330.458527 491.180695,329.793304 
	C469.222015,324.038513 455.904816,310.197571 453.725677,285.081696 
	C453.411285,281.458405 454.957886,280.293182 458.466309,280.987579 
	C465.824066,282.443909 472.308594,285.621277 478.302734,290.658081 
z"/>
</svg>